<?xml version="1.0" encoding="UTF-8" standalone="yes"?>
<svg xmlns="http://www.w3.org/2000/svg" xmlns:xlink="http://www.w3.org/1999/xlink" viewBox="0 0 24 24" version="1.1" width="24" height="24" fill="#000000">
  <g id="surface1">
    <path style=" " d="M 10.246094 13.222656 C 9.304688 13.804688 8.074219 13.511719 7.492188 12.570313 C 7.492188 12.570313 7.335938 12.695313 7.109375 12.867188 L 5.890625 11.074219 L 9.339844 8.585938 L 10.046875 9.621094 L 7.820313 11.195313 L 8.34375 12.046875 C 8.632813 12.515625 9.25 12.660156 9.71875 12.371094 L 22 3.625 L 20.828125 2 L 10.863281 9.046875 L 10.148438 8 L 11.359375 7.125 L 10.1875 5.507813 L 2.910156 10.683594 L 4.171875 12.3125 L 5.078125 11.660156 L 6.304688 13.457031 C 6.046875 13.636719 5.792969 13.800781 5.601563 13.902344 C 5.683594 14.386719 5.5625 15.449219 5.296875 15.613281 L 2.304688 17.726563 C 1.835938 18.015625 1.6875 18.632813 1.980469 19.101563 L 3.558594 21.523438 C 3.847656 21.996094 4.464844 22.140625 4.933594 21.851563 L 6.636719 20.800781 C 7.453125 20.296875 7.9375 19.636719 8.246094 18.957031 L 8.578125 17.679688 L 9.191406 18.554688 C 9.511719 19.011719 10.148438 19.117188 10.601563 18.785156 L 11.28125 18.28125 C 12.253906 17.257813 12.203125 16.050781 11.417969 14.777344 C 11.410156 14.761719 11.402344 14.757813 11.394531 14.742188 L 17.554688 10.171875 C 18.492188 9.589844 18.785156 8.359375 18.203125 7.417969 Z M 10.769531 17.320313 L 9.75 15.875 L 10.546875 15.261719 C 10.554688 15.273438 10.558594 15.289063 10.566406 15.300781 C 11.070313 16.117188 11.230469 16.621094 10.769531 17.320313 Z "/>
  </g>
</svg>
