<?xml version="1.0" encoding="UTF-8" standalone="yes"?>
<svg xmlns="http://www.w3.org/2000/svg" xmlns:xlink="http://www.w3.org/1999/xlink" viewBox="0 0 24 24" version="1.1" width="24" height="24" fill="#000000">
  <g id="surface1">
    <path style=" " d="M 21.988281 15.683594 C 21.878906 14.375 20.554688 13.515625 19.277344 13.808594 L 18.953125 13.878906 L 20.558594 10.316406 C 21.417969 8.417969 19.800781 6.71875 17.765625 7.316406 C 17.007813 7.539063 14.765625 8.359375 14.765625 8.359375 C 14.765625 8.359375 14.265625 6.234375 14.058594 5.691406 C 13.226563 3.546875 10.160156 3.277344 8.8125 5.84375 C 8.566406 6.3125 7.789063 7.691406 7.789063 7.691406 C 7.789063 7.691406 6.425781 7.246094 5.960938 7.140625 C 3.808594 6.660156 2.402344 8.503906 3.011719 10.796875 C 3.351563 12.078125 4.332031 14.839844 4.332031 14.839844 L 4.316406 14.835938 C 2.214844 14.714844 1.464844 16.949219 2.5625 18.566406 C 3.039063 19.269531 3.835938 19.691406 4.6875 19.691406 L 7.414063 19.691406 L 5.058594 17.691406 L 8.058594 17.710938 L 6.058594 11.691406 L 9.347656 14.410156 L 11.058594 8.691406 L 12.5625 15.070313 L 17.058594 11.691406 L 14.492188 17.710938 L 19.058594 16.691406 L 15.78125 19.691406 L 19.117188 19.691406 C 20.128906 19.691406 21.042969 19.101563 21.460938 18.183594 L 21.582031 17.910156 C 21.910156 17.164063 22.046875 16.382813 21.988281 15.683594 Z "/>
  </g>
</svg>
