<?xml version="1.0" encoding="UTF-8" standalone="yes"?>
<svg xmlns="http://www.w3.org/2000/svg" xmlns:xlink="http://www.w3.org/1999/xlink" viewBox="0 0 24 24" version="1.1" width="24" height="24" fill="#000000">
  <g id="surface1">
    <path style=" " d="M 11.75 2.0625 C 11.496094 2.09375 11.226563 2.164063 10.96875 2.28125 C 10.957031 2.292969 10.949219 2.300781 10.9375 2.3125 C 10.070313 2.746094 9.707031 3.480469 9.46875 3.875 C 9.230469 4.269531 9.191406 4.394531 8.6875 4.5625 C 7.804688 4.855469 7.183594 5.53125 6.875 6.21875 C 6.566406 6.90625 6.5 7.585938 6.5 8.1875 C 6.5 8.605469 6.335938 8.769531 5.9375 9.3125 C 5.539063 9.855469 5 10.75 5 12 C 5 13.585938 5.734375 14.871094 5.21875 16.84375 L 7.15625 17.34375 C 7.839844 14.71875 7 12.613281 7 12 C 7 11.25 7.210938 10.980469 7.5625 10.5 C 7.914063 10.019531 8.5 9.269531 8.5 8.1875 C 8.5 7.789063 8.578125 7.34375 8.71875 7.03125 C 8.859375 6.71875 8.996094 6.542969 9.3125 6.4375 C 10.308594 6.105469 10.867188 5.386719 11.15625 4.90625 C 11.445313 4.425781 11.511719 4.257813 11.84375 4.09375 C 12.117188 3.976563 12.472656 4.035156 13.0625 4.21875 C 13.667969 4.410156 14.472656 4.835938 15.46875 4.4375 C 15.976563 4.242188 16.289063 4.25 16.53125 4.3125 C 16.773438 4.375 17.003906 4.515625 17.25 4.8125 C 17.308594 4.886719 17.347656 5.003906 17.40625 5.09375 C 16.824219 4.914063 16.195313 4.863281 15.53125 4.96875 C 15.199219 5.023438 14.847656 5.121094 14.5 5.25 C 14.320313 5.292969 14.136719 5.34375 13.90625 5.3125 C 13.105469 5.210938 12.601563 4.90625 12 5.90625 C 11.601563 6.605469 10.605469 7.199219 9.90625 7.5 C 9.007813 8 9 8.894531 9 9.59375 C 9 11.292969 8 10.992188 8 12.09375 C 8 12.84375 8.296875 13.488281 8.4375 14.6875 C 8.40625 14.886719 8.371094 15.089844 8.34375 15.28125 C 8.128906 16.816406 7.960938 18.152344 7.65625 18.90625 C 7.503906 19.285156 7.324219 19.503906 7.15625 19.625 C 6.988281 19.746094 6.789063 19.832031 6.34375 19.8125 C 5.742188 19.625 5.289063 19.144531 4.875 18.34375 C 4.308594 17.253906 4 15.625 4 14 C 4.007813 13.9375 4.007813 13.875 4 13.8125 C 4.015625 11.199219 4.332031 10.5625 5.5 8.90625 C 6.101563 8.105469 5.398438 7.085938 6 5.6875 C 2.835938 7.890625 2.058594 11.382813 2 13.78125 C 1.992188 13.855469 1.992188 13.925781 2 14 C 2 14.011719 2 14.019531 2 14.03125 C 2 14.050781 2 14.074219 2 14.09375 C 2 14.105469 2 14.113281 2 14.125 C 2.015625 15.957031 2.359375 17.773438 3.125 19.25 C 3.722656 20.398438 4.679688 21.347656 5.90625 21.71875 C 5.964844 21.746094 6.03125 21.765625 6.09375 21.78125 C 6.136719 21.789063 6.207031 21.804688 6.25 21.8125 C 6.445313 21.851563 6.636719 21.898438 6.84375 21.90625 C 7.253906 21.964844 7.699219 22 8.1875 22 C 10.433594 22 12.613281 20.667969 15.03125 19.15625 C 17.074219 17.878906 18.730469 16.625 19.90625 15.59375 C 20.492188 15.078125 20.96875 14.625 21.3125 14.21875 C 21.484375 14.015625 21.628906 13.828125 21.75 13.625 C 21.871094 13.421875 22 13.234375 22 12.8125 C 22 11.496094 21.53125 9.460938 20.4375 7.6875 L 20.46875 7.6875 C 20.105469 6.078125 19.667969 4.609375 18.78125 3.53125 C 18.339844 2.992188 17.746094 2.558594 17.03125 2.375 C 16.316406 2.191406 15.542969 2.257813 14.75 2.5625 C 14.738281 2.5625 14.730469 2.5625 14.71875 2.5625 C 14.714844 2.5625 14.328125 2.523438 13.65625 2.3125 C 13.320313 2.207031 12.925781 2.101563 12.46875 2.0625 C 12.238281 2.042969 12.003906 2.03125 11.75 2.0625 Z M 16.34375 6.90625 C 16.503906 6.917969 16.664063 6.953125 16.8125 7 C 17.40625 7.183594 17.976563 7.671875 18.46875 8.375 C 19.414063 9.722656 19.929688 11.808594 19.96875 12.65625 C 19.925781 12.71875 19.878906 12.792969 19.78125 12.90625 C 19.53125 13.199219 19.132813 13.621094 18.59375 14.09375 C 17.519531 15.035156 15.925781 16.214844 13.96875 17.4375 C 12.210938 18.535156 10.746094 19.246094 9.5 19.625 C 9.980469 18.429688 10.105469 17.042969 10.3125 15.5625 C 10.730469 12.578125 11.347656 9.410156 14.53125 7.4375 L 14.53125 7.46875 C 15.042969 7.160156 15.46875 7 15.84375 6.9375 C 16.03125 6.90625 16.183594 6.894531 16.34375 6.90625 Z M 14 10 C 13.449219 10 13 10.449219 13 11 C 13 11.550781 13.449219 12 14 12 C 14.550781 12 15 11.550781 15 11 C 15 10.449219 14.550781 10 14 10 Z M 17 11 C 16.449219 11 16 11.449219 16 12 C 16 12.550781 16.449219 13 17 13 C 17.550781 13 18 12.550781 18 12 C 18 11.449219 17.550781 11 17 11 Z M 15 13 C 14.449219 13 14 13.449219 14 14 C 14 14.550781 14.449219 15 15 15 C 15.550781 15 16 14.550781 16 14 C 16 13.449219 15.550781 13 15 13 Z "/>
  </g>
</svg>
