<?xml version="1.0" encoding="UTF-8" standalone="yes"?>
<svg xmlns="http://www.w3.org/2000/svg" xmlns:xlink="http://www.w3.org/1999/xlink" viewBox="0 0 24 24" version="1.1" width="24" height="24" fill="#000000">
  <g id="surface1">
    <path style=" " d="M 4.21875 5 C 3.859375 5.425781 2.117188 7.625 3.15625 9.1875 C 3.804688 10.160156 4.84375 10.199219 5.53125 10.21875 C 5.773438 10.226563 6.183594 10.238281 6.25 10.3125 C 6.289063 10.359375 6.304688 10.414063 6.34375 10.46875 C 4.597656 11.789063 3.722656 13.613281 4.28125 15.125 C 4.695313 16.238281 5.816406 16.964844 7.25 17.21875 C 6.707031 15.027344 7.863281 12.742188 10.03125 11.9375 C 12.34375 11.082031 14.898438 12.238281 15.78125 14.53125 C 18.253906 13.058594 20.3125 11.53125 20.3125 11.53125 C 20.484375 11.992188 20.992188 12.226563 21.4375 12.0625 C 21.882813 11.894531 22.109375 11.398438 21.9375 10.9375 L 20.375 6.78125 C 20.203125 6.320313 19.726563 6.085938 19.28125 6.25 C 18.835938 6.414063 18.609375 6.914063 18.78125 7.375 C 18.78125 7.375 12.433594 7.855469 8.625 9.25 C 8.445313 9.316406 8.265625 9.394531 8.09375 9.46875 C 7.984375 9.300781 7.878906 9.117188 7.75 8.96875 C 7.105469 8.246094 6.234375 8.234375 5.59375 8.21875 C 5.179688 8.207031 4.902344 8.207031 4.84375 8.125 C 4.777344 7.882813 5.171875 6.972656 5.75 6.28125 Z M 11.59375 12.65625 C 9.660156 12.65625 8.09375 14.222656 8.09375 16.15625 C 8.09375 18.089844 9.660156 19.65625 11.59375 19.65625 C 13.527344 19.65625 15.09375 18.089844 15.09375 16.15625 C 15.09375 14.222656 13.527344 12.65625 11.59375 12.65625 Z M 3.4375 13.3125 L 2.65625 13.59375 C 2.136719 13.785156 1.871094 14.355469 2.0625 14.875 L 2.75 16.75 C 2.941406 17.269531 3.511719 17.535156 4.03125 17.34375 L 4.8125 17.0625 C 4.121094 16.6875 3.597656 16.152344 3.34375 15.46875 C 3.089844 14.785156 3.15625 14.046875 3.4375 13.3125 Z M 11.59375 14.65625 C 12.421875 14.65625 13.09375 15.328125 13.09375 16.15625 C 13.09375 16.984375 12.421875 17.65625 11.59375 17.65625 C 10.765625 17.65625 10.09375 16.984375 10.09375 16.15625 C 10.09375 15.328125 10.765625 14.65625 11.59375 14.65625 Z "/>
  </g>
</svg>
