<?xml version="1.0" encoding="UTF-8" standalone="yes"?>
<svg xmlns="http://www.w3.org/2000/svg" xmlns:xlink="http://www.w3.org/1999/xlink" viewBox="0 0 50 50" version="1.1" width="50" height="50" fill="#000000">
  <g id="surface1">
    <path style=" " d="M 36.15625 0 C 36.011719 -0.0234375 35.859375 -0.0078125 35.71875 0.03125 C 35.480469 0.0976563 29.820313 1.746094 25.78125 5.78125 C 21.746094 9.816406 20.097656 15.480469 20.03125 15.71875 C 19.949219 16.003906 20.019531 16.316406 20.1875 16.5625 C 20.355469 16.808594 20.609375 16.972656 20.90625 17 L 31.5625 17.96875 L 38.28125 24.71875 C 38.476563 24.914063 38.742188 25 39 25 C 39.257813 25 39.523438 24.914063 39.71875 24.71875 L 44.71875 19.71875 C 45.109375 19.328125 45.109375 18.671875 44.71875 18.28125 L 42.90625 16.5 L 44.8125 14.59375 C 44.910156 14.496094 44.980469 14.402344 45.03125 14.28125 C 45.179688 13.921875 45.105469 13.480469 44.8125 13.1875 L 40.8125 9.1875 C 40.726563 9.101563 40.609375 9.046875 40.5 9 C 40.46875 8.988281 40.4375 8.980469 40.40625 8.96875 C 40.324219 8.945313 40.242188 8.941406 40.15625 8.9375 C 40.117188 8.933594 40.101563 8.90625 40.0625 8.90625 C 39.953125 8.910156 39.851563 8.929688 39.75 8.96875 C 39.621094 9.015625 39.503906 9.089844 39.40625 9.1875 L 37.875 10.6875 L 37 0.90625 C 36.972656 0.609375 36.808594 0.355469 36.5625 0.1875 C 36.441406 0.101563 36.300781 0.0234375 36.15625 0 Z M 28.84375 19.71875 L 4.28125 44.28125 C 3.890625 44.671875 3.890625 45.328125 4.28125 45.71875 L 8.28125 49.71875 C 8.46875 49.90625 8.734375 50 9 50 C 9.265625 50 9.53125 49.90625 9.71875 49.71875 L 35.09375 24.3125 L 30.65625 19.875 Z "/>
  </g>
</svg>
