<?xml version="1.0" encoding="UTF-8" standalone="yes"?>
<svg xmlns="http://www.w3.org/2000/svg" viewBox="0 0 24 24" width="48" height="48" fill="#000000">
  <path d="M11.448,2.166l-8,5.299C3.168,7.651,3,7.964,3,8.299V19c0,1.105,0.895,2,2,2h14c1.105,0,2-0.895,2-2V8.299 c0-0.335-0.168-0.648-0.448-0.834l-8-5.299C12.217,1.945,11.783,1.945,11.448,2.166z M15,14h-2v2c0,0.552-0.448,1-1,1h0 c-0.552,0-1-0.448-1-1v-2H9c-0.552,0-1-0.448-1-1v0c0-0.552,0.448-1,1-1h2v-2c0-0.552,0.448-1,1-1h0c0.552,0,1,0.448,1,1v2h2 c0.552,0,1,0.448,1,1v0C16,13.552,15.552,14,15,14z"/>
</svg>
