<?xml version="1.0" encoding="UTF-8" standalone="yes"?>
<svg xmlns="http://www.w3.org/2000/svg" xmlns:xlink="http://www.w3.org/1999/xlink" viewBox="0 0 24 24" version="1.1" width="24" height="24" fill="#000000">
  <g id="surface1">
    <path style=" " d="M 13.75 2 C 11.71875 2 9.78125 2.8125 8.34375 4.25 C 6.84375 5.75 6 7.785156 6 9.90625 L 6 16 C 6 16.550781 6.449219 17 7 17 C 7.550781 17 8 16.550781 8 16 L 8 9.90625 C 8 8.46875 8.511719 7.082031 9.4375 6 L 12.8125 6 L 12 8 L 20 8 L 18.40625 4 L 20 4 C 20.550781 4 21 3.550781 21 3 C 21 2.449219 20.550781 2 20 2 Z M 6.5 4 C 4.019531 4 2 6.019531 2 8.5 C 2 10.453125 3.257813 12.097656 5 12.71875 L 5 10.5 C 4.398438 10.042969 4 9.3125 4 8.5 C 4 7.390625 4.71875 6.449219 5.71875 6.125 C 6.054688 5.402344 6.496094 4.699219 7.03125 4.0625 C 6.851563 4.039063 6.683594 4 6.5 4 Z M 10 7 C 9.457031 7.1875 9 8.230469 9 9 L 9 12.25 C 10.203125 11.441406 11 10.054688 11 8.5 C 11 7.972656 10.886719 7.472656 10.71875 7 Z M 12 9 C 11.140625 10.0625 10.410156 11.449219 10.125 13 L 13 13 C 13.039063 11.496094 13.164063 10.144531 13.375 9 Z M 14.375 9 C 14.171875 10.097656 14.039063 11.449219 14 13 L 18 13 C 17.960938 11.449219 17.828125 10.097656 17.625 9 Z M 18.625 9 C 18.839844 10.144531 18.964844 11.496094 19 13 L 21.875 13 C 21.589844 11.449219 20.859375 10.0625 20 9 Z M 10.03125 14 C 10.023438 14.140625 10 14.265625 10 14.40625 C 10 15.316406 10.144531 16.191406 10.375 17 L 13.125 17 C 13.042969 16.074219 13 15.074219 13 14 Z M 14 14 C 14 15.089844 14.046875 16.089844 14.125 17 L 17.875 17 C 17.953125 16.089844 18 15.089844 18 14 Z M 19 14 C 19 15.074219 18.957031 16.074219 18.875 17 L 21.625 17 C 21.855469 16.191406 22 15.3125 22 14.40625 C 22 14.265625 21.976563 14.140625 21.96875 14 Z M 10.71875 18 C 11.460938 19.742188 12.730469 21.066406 14.25 21.65625 C 13.785156 20.789063 13.453125 19.546875 13.25 18 Z M 14.21875 18 C 14.539063 20.480469 15.191406 22 16 22 C 16.808594 22 17.460938 20.480469 17.78125 18 Z M 18.75 18 C 18.546875 19.546875 18.214844 20.789063 17.75 21.65625 C 19.269531 21.066406 20.539063 19.742188 21.28125 18 Z "/>
  </g>
</svg>
